<svg width="14" height="14" viewBox="0 0 14 14" fill="none" xmlns="http://www.w3.org/2000/svg">
<path fill-rule="evenodd" clip-rule="evenodd" d="M6.99992 13.6663C10.6818 13.6663 13.6666 10.6815 13.6666 6.99967C13.6666 3.31777 10.6818 0.333008 6.99992 0.333008C3.31802 0.333008 0.333252 3.31777 0.333252 6.99967C0.333252 10.6815 3.31802 13.6663 6.99992 13.6663ZM7.49992 4.99967C7.49992 4.72353 7.27605 4.49967 6.99992 4.49967C6.72379 4.49967 6.49992 4.72353 6.49992 4.99967V6.49967H4.99992C4.72378 6.49967 4.49992 6.72354 4.49992 6.99967C4.49992 7.27581 4.72378 7.49967 4.99992 7.49967H6.49992V8.99967C6.49992 9.27581 6.72379 9.49967 6.99992 9.49967C7.27605 9.49967 7.49992 9.27581 7.49992 8.99967V7.49967H8.99992C9.27605 7.49967 9.49992 7.27581 9.49992 6.99967C9.49992 6.72354 9.27605 6.49967 8.99992 6.49967H7.49992V4.99967Z" fill="#465FFF"/>
</svg>
