<svg width="16" height="12" viewBox="0 0 16 12" fill="none" xmlns="http://www.w3.org/2000/svg">
<path d="M0.787109 6C1.41412 2.58651 4.40476 0 7.99955 0C11.5943 0 14.5849 2.58651 15.2119 6C14.5849 9.41347 11.5943 12 7.99955 12C4.40476 12 1.41412 9.41347 0.787109 6ZM7.99955 9.33333C9.84048 9.33333 11.3329 7.84093 11.3329 6C11.3329 4.15905 9.84048 2.66667 7.99955 2.66667C6.15858 2.66667 4.66619 4.15905 4.66619 6C4.66619 7.84093 6.15858 9.33333 7.99955 9.33333ZM7.99955 8C6.89495 8 5.99952 7.1046 5.99952 6C5.99952 4.8954 6.89495 4 7.99955 4C9.10408 4 9.99955 4.8954 9.99955 6C9.99955 7.1046 9.10408 8 7.99955 8Z" fill="#465FFF"/>
</svg>
