<svg width="10" height="11" viewBox="0 0 10 11" fill="none" xmlns="http://www.w3.org/2000/svg">
<path d="M4.27647 9.37476C5.2253 9.37456 6.14679 9.05694 6.89421 8.47247L9.24413 10.8223L10 10.0664L7.65008 7.71664C8.23489 6.96919 8.55272 6.04754 8.55295 5.09851C8.55295 2.7407 6.63441 0.822266 4.27647 0.822266C1.91853 0.822266 0 2.7407 0 5.09851C0 7.45633 1.91853 9.37476 4.27647 9.37476ZM4.27647 1.89133C6.04533 1.89133 7.48383 3.32975 7.48383 5.09851C7.48383 6.86727 6.04533 8.3057 4.27647 8.3057C2.50762 8.3057 1.06912 6.86727 1.06912 5.09851C1.06912 3.32975 2.50762 1.89133 4.27647 1.89133Z" fill="#A9A9A9"/>
</svg>
